<?xml version="1.0" encoding="UTF-8"?>
<svg id="Layer_1" xmlns="http://www.w3.org/2000/svg" version="1.1" viewBox="0 0 719.9999 100.9812">
  <!-- Generator: Adobe Illustrator 29.5.1, SVG Export Plug-In . SVG Version: 2.1.0 Build 141)  -->
  <defs>
    <style>
      .st0 {
        fill: #fff;
      }
    </style>
  </defs>
  <path class="st0" d="M530.6069,92.3244L492.3729,4.8601c-.733-1.6756-2.388-2.7597-4.219-2.7597h-26.015c-1.83,0-3.486,1.0841-4.218,2.7597l-38.235,87.4644c-1.33,3.042.899,6.447,4.219,6.447h22.948c1.904,0,3.611-1.172,4.295-2.949l5.3549-13.899h36.735l5.355,13.899c.684,1.777,2.392,2.949,4.296,2.949h23.5001c3.3199,0,5.547-3.405,4.218-6.447h0ZM484.2619,58.4457h-18.782l9.391-24.3054,9.391,24.3054h0Z"/>
  <path class="st0" d="M671.6649,74.1895v-12.7056h36.274c2.543,0,4.604-2.0608,4.604-4.6033v-14.2703c0-2.5423-2.061-4.6034-4.604-4.6034h-36.274v-11.3245h41.937c2.5419,0,4.603-2.0609,4.603-4.6034V6.7036c0-2.5418-2.061-4.6034-4.603-4.6034h-69.373c-2.543,0-4.604,2.0616-4.604,4.6034v87.4639c0,2.543,2.061,4.604,4.604,4.604h71.168c2.5421,0,4.603-2.061,4.603-4.604v-15.375c0-2.542-2.0609-4.603-4.603-4.603h-43.7319Z"/>
  <path class="st0" d="M603.227,4.9283l-22.433,53.6555-21.894-53.6199c-.707-1.7313-2.391-2.8637-4.262-2.8637h-25.0399c-3.2951,0-5.5241,3.3616-4.2401,6.3967l36.985,87.4636c.72,1.704,2.39,2.811,4.24,2.811h25.936c1.85,0,3.52-1.107,4.2399-2.811l36.985-87.4636c1.283-3.0351-.945-6.3967-4.24-6.3967h-22.03c-1.856,0-3.531,1.1155-4.2469,2.8281h0Z"/>
  <path class="st0" d="M391.6759,5.3006l-16.791,52.4547-15.859-52.3852c-.588-1.9414-2.377-3.2699-4.406-3.2699h-23.204c-1.996,0-3.764,1.2858-4.379,3.1846l-16.783,51.78-15.851-51.7098c-.593-1.9338-2.379-3.2548-4.402-3.2548h-23.848c-3.119,0-5.335,3.0368-4.385,6.0066l27.989,87.4637c.61,1.907,2.383,3.201,4.384,3.201h28.2141c2.004,0,3.778-1.297,4.386-3.207l15.414-48.443,14.617,48.378c.587,1.943,2.377,3.272,4.406,3.272h28.161c2.003,0,3.775-1.294,4.385-3.201l27.989-87.4637c.95-2.9698-1.266-6.0066-4.385-6.0066h-21.268c-2.002,0-3.774,1.2942-4.384,3.2004h0Z"/>
  <path class="st0" d="M93.5409,98.7715h67.025c2.542,0,4.603-2.061,4.603-4.604v-16.065c0-2.542-2.061-4.604-4.603-4.604h-39.037V6.7036c0-2.5418-2.061-4.6034-4.603-4.6034h-23.385c-2.543,0-4.604,2.0616-4.604,4.6034v87.4639c0,2.543,2.061,4.604,4.604,4.604h0Z"/>
  <path class="st0" d="M78.5799,22.079V6.7036c0-2.5418-2.061-4.6034-4.604-4.6034H4.6033C2.0611,2.1001,0,4.1618,0,6.7036v87.4639c0,2.543,2.0611,4.604,4.6033,4.604h23.3853c2.5424,0,4.6033-2.061,4.6033-4.604v-26.331h35.722c2.543,0,4.604-2.0607,4.604-4.6032v-15.3751c0-2.5423-2.061-4.6034-4.604-4.6034h-35.722v-16.5724h41.384c2.543,0,4.604-2.0609,4.604-4.6034h0Z"/>
  <path class="st0" d="M257.1919,39.9816L221.5649,4.3542c-5.805-5.8057-15.217-5.8057-21.023.0009l-35.623,35.6214c-5.805,5.8069-5.804,15.2175,0,21.0232l35.628,35.6278c5.804,5.805,15.217,5.805,21.023,0l35.6219-35.6227c5.805-5.8057,5.805-15.2183,0-21.0232h0ZM229.0879,54.6l-13.923,13.9225c-2.269,2.269-5.947,2.269-8.217,0l-13.924-13.9247c-2.268-2.269-2.268-5.947,0-8.2161l13.923-13.9223c2.269-2.2696,5.947-2.2696,8.216,0l13.925,13.9241c2.269,2.2685,2.269,5.9472,0,8.2165h0Z"/>
</svg>