<?xml version="1.0" encoding="UTF-8"?>
<svg id="Layer_1" xmlns="http://www.w3.org/2000/svg" version="1.1" viewBox="0 0 720 720">
  <!-- Generator: Adobe Illustrator 29.5.1, SVG Export Plug-In . SVG Version: 2.1.0 Build 141)  -->
  <defs>
    <style>
      .st0 {
        fill: #00ce97;
      }

      .st1 {
        fill: #fff;
      }
    </style>
  </defs>
  <polygon class="st0" points="0 0 0 720 720 720 720 0 0 0 0 0"/>
  <path class="st1" d="M522.953,386.152l-52.897-52.897c-8.619-8.62-22.593-8.62-31.213.001l-52.891,52.889c-8.619,8.621-8.617,22.594,0,31.213l52.897,52.898c8.619,8.62,22.595,8.62,31.214,0l52.89-52.89c8.619-8.62,8.619-22.595,0-31.214h0ZM481.225,407.8569l-20.6711,20.67c-3.368,3.37-8.831,3.37-12.199.001l-20.675-20.674c-3.368-3.37-3.368-8.831,0-12.199l20.672-20.672c3.369-3.369,8.83-3.369,12.199,0l20.674,20.674c3.369,3.369,3.369,8.83,0,12.2h0Z"/>
  <path class="st1" d="M529.405,262.44v-106.3951c.002-12.02-9.744-21.767-21.7641-21.767h-106.386c-12.021.001-21.766,9.748-21.766,21.767v106.3951c0,12.023,9.745,21.769,21.766,21.767l106.384.002c12.022,0,21.7661-9.746,21.7661-21.769h0Z"/>
  <path class="st1" d="M340.5,563.955V156.0469c-.002-12.022-9.745-21.769-21.768-21.769h-106.382c-12.023.001-21.767,9.747-21.767,21.767l.001,407.909c-.001,12.021,9.743,21.765,21.767,21.7671l106.381-.002c12.022,0,21.766-9.744,21.768-21.7639h0Z"/>
</svg>