<?xml version="1.0" encoding="UTF-8"?>
<svg id="Layer_1" xmlns="http://www.w3.org/2000/svg" version="1.1" viewBox="0 0 720 134.5685">
  <!-- Generator: Adobe Illustrator 29.5.1, SVG Export Plug-In . SVG Version: 2.1.0 Build 141)  -->
  <defs>
    <style>
      .st0 {
        fill: #fff;
      }
    </style>
  </defs>
  <path class="st0" d="M99.075,75.0795l-15.768-15.7675c-2.569-2.5696-6.734-2.5696-9.304.0002l-15.7661,15.7653c-2.5692,2.57-2.5687,6.735,0,9.305l15.7681,15.768c2.569,2.569,6.735,2.569,9.304-.001l15.766-15.765c2.569-2.57,2.569-6.736,0-9.305h0ZM86.636,81.5495l-6.161,6.162c-1.004,1.004-2.633,1.004-3.637,0l-6.162-6.163c-1.004-1.004-1.004-2.632,0-3.636l6.162-6.162c1.004-1.004,2.632-1.004,3.636,0l6.162,6.163c1.005,1.004,1.005,2.632,0,3.636h0Z"/>
  <path class="st0" d="M100.998,38.2033V6.4884c.001-3.583-2.904-6.4884-6.487-6.4884h-31.7124c-3.5834.0003-6.4884,2.9056-6.4884,6.4884v31.7149c0,3.5838,2.905,6.4888,6.4884,6.4884l31.7114.0004c3.584.0004,6.488-2.905,6.488-6.4888h0Z"/>
  <path class="st0" d="M44.6882,128.0805V6.489c-.0004-3.5836-2.9047-6.489-6.4887-6.489H6.4883C2.9047.0003,0,2.9054,0,6.4884l.0004,121.5921c-.0004,3.583,2.9043,6.488,6.4883,6.488h31.7108c3.5836,0,6.4883-2.905,6.4887-6.488h0Z"/>
  <path class="st0" d="M571.697,100.0425l-29.939-68.4885c-.573-1.3121-1.8701-2.161-3.303-2.161h-20.371c-1.433,0-2.73.8489-3.303,2.161l-29.939,68.4885c-1.041,2.382.704,5.048,3.303,5.048h17.969c1.491,0,2.828-.917,3.363-2.3091l4.194-10.884h28.765l4.193,10.884c.5359,1.392,1.873,2.3091,3.364,2.3091h18.402c2.599,0,4.343-2.666,3.302-5.048h0ZM535.407,73.5135h-14.707l7.3541-19.0318,7.3529,19.0318h0Z"/>
  <path class="st0" d="M682.1519,85.8415v-9.949h28.4041c1.991,0,3.605-1.613,3.605-3.604v-11.1745c0-1.9907-1.614-3.6046-3.605-3.6046h-28.4041v-8.8676h32.838c1.9911,0,3.604-1.6138,3.604-3.6046v-12.0396c0-1.9904-1.6129-3.6046-3.604-3.6046h-54.3219c-1.9911,0-3.6051,1.6142-3.6051,3.6046v68.4879c0,1.991,1.614,3.605,3.6051,3.605h55.7279c1.99,0,3.604-1.614,3.604-3.605v-12.039c0-1.991-1.614-3.605-3.604-3.605h-34.244Z"/>
  <path class="st0" d="M628.562,31.6074l-17.566,42.0141-17.1439-41.9862c-.553-1.3557-1.873-2.2423-3.337-2.2423h-19.6081c-2.5799,0-4.325,2.6321-3.32,5.0087l28.961,68.4878c.564,1.334,1.872,2.201,3.32,2.201h20.309c1.449,0,2.756-.867,3.32-2.201l28.961-68.4878c1.005-2.3766-.74-5.0087-3.32-5.0087h-17.25c-1.4539,0-2.765.8734-3.326,2.2144h0Z"/>
  <path class="st0" d="M462.908,31.8989l-13.147,41.0746-12.418-41.02c-.461-1.5203-1.862-2.5605-3.45-2.5605h-18.171c-1.562,0-2.947,1.0067-3.429,2.4936l-13.142,40.5459-12.411-40.4909c-.465-1.5144-1.8629-2.5486-3.447-2.5486h-18.674c-2.443,0-4.178,2.3778-3.433,4.7033l21.916,68.4882c.4771,1.493,1.8651,2.5061,3.433,2.5061h22.092c1.57,0,2.959-1.016,3.435-2.511l12.069-37.9331,11.446,37.8821c.46,1.521,1.861,2.562,3.451,2.562h22.051c1.568,0,2.956-1.013,3.433-2.5061l21.9171-68.4882c.7439-2.3255-.9921-4.7033-3.4341-4.7033h-16.654c-1.567,0-2.955,1.0133-3.433,2.5059h0Z"/>
  <path class="st0" d="M229.456,105.0905h52.484c1.991,0,3.604-1.614,3.604-3.605v-12.58c0-1.99-1.613-3.605-3.604-3.605h-30.568v-52.3029c0-1.9904-1.613-3.6046-3.604-3.6046h-18.312c-1.991,0-3.605,1.6142-3.605,3.6046v68.4879c0,1.991,1.614,3.605,3.605,3.605h0Z"/>
  <path class="st0" d="M217.741,45.0372v-12.0396c0-1.9904-1.614-3.6046-3.605-3.6046h-54.322c-1.99,0-3.604,1.6142-3.604,3.6046v68.4879c0,1.991,1.614,3.605,3.604,3.605h18.312c1.991,0,3.605-1.614,3.605-3.605v-20.618h27.972c1.991,0,3.604-1.614,3.604-3.605v-12.0391c0-1.9908-1.613-3.6048-3.604-3.6048h-27.972v-12.9768h32.405c1.991,0,3.605-1.6138,3.605-3.6046h0Z"/>
  <path class="st0" d="M357.602,59.0556l-27.898-27.8977c-4.545-4.5461-11.915-4.5461-16.461.0008l-27.894,27.893c-4.546,4.5469-4.545,11.9158,0,16.4618l27.897,27.898c4.546,4.546,11.917,4.546,16.462,0l27.894-27.894c4.546-4.546,4.546-11.9165,0-16.4619h0ZM335.595,70.5025l-10.902,10.902c-1.776,1.777-4.657,1.777-6.434,0l-10.903-10.904c-1.776-1.776-1.776-4.657,0-6.4334l10.902-10.9019c1.777-1.7771,4.657-1.7771,6.434,0l10.903,10.9034c1.777,1.7759,1.777,4.6569,0,6.4339h0Z"/>
</svg>