<?xml version="1.0" encoding="UTF-8"?>
<svg id="Layer_1" xmlns="http://www.w3.org/2000/svg" version="1.1" viewBox="0 0 719.9999 336.9689">
  <!-- Generator: Adobe Illustrator 29.5.1, SVG Export Plug-In . SVG Version: 2.1.0 Build 141)  -->
  <defs>
    <style>
      .st0 {
        fill: #fff;
      }
    </style>
  </defs>
  <path class="st0" d="M422.032,95.8823l-20.136-20.137c-3.281-3.281-8.601-3.281-11.882.001l-20.135,20.133c-3.281,3.282-3.28,8.601,0,11.882l20.137,20.138c3.281,3.281,8.601,3.281,11.882-.001l20.134-20.134c3.282-3.281,3.282-8.601,0-11.882h0ZM406.1479,104.1443l-7.87,7.869c-1.282,1.283-3.361,1.283-4.644,0l-7.87-7.87c-1.282-1.282-1.282-3.361,0-4.644l7.87-7.869c1.282-1.282,3.361-1.282,4.643,0l7.871,7.87c1.282,1.283,1.282,3.362,0,4.644h0Z"/>
  <path class="st0" d="M424.4889,48.7883V8.2861c0-4.5759-3.71-8.2861-8.286-8.2861h-40.498c-4.576.0005-8.286,3.7107-8.286,8.2861v40.5022c0,4.5767,3.71,8.2867,8.286,8.2862l40.498.0005c4.576.0004,8.286-3.71,8.286-8.2867h0Z"/>
  <path class="st0" d="M352.5759,163.5683V8.2869c0-4.5767-3.709-8.2869-8.286-8.2869h-40.497c-4.577.0005-8.287,3.7102-8.287,8.2861l.001,155.2812c-.001,4.577,3.709,8.286,8.286,8.287l40.497-.001c4.577,0,8.286-3.709,8.286-8.285h0Z"/>
  <path class="st0" d="M530.6069,328.3113l-38.234-87.464c-.733-1.675-2.388-2.7599-4.219-2.7599h-26.015c-1.83,0-3.486,1.085-4.218,2.7599l-38.235,87.464c-1.33,3.042.899,6.447,4.219,6.447h22.948c1.904,0,3.611-1.171,4.295-2.948l5.3549-13.9h36.735l5.355,13.9c.684,1.777,2.392,2.948,4.296,2.948h23.5001c3.3199,0,5.547-3.405,4.218-6.447h0ZM484.2619,294.4333h-18.782l9.391-24.306,9.391,24.306h0Z"/>
  <path class="st0" d="M671.6649,310.1763v-12.705h36.274c2.543,0,4.604-2.061,4.604-4.603v-14.271c0-2.542-2.061-4.603-4.604-4.603h-36.274v-11.324h41.937c2.5419,0,4.603-2.061,4.603-4.604v-15.375c0-2.542-2.061-4.6039-4.603-4.6039h-69.373c-2.543,0-4.604,2.062-4.604,4.6039v87.464c0,2.543,2.061,4.603,4.604,4.603h71.168c2.5421,0,4.603-2.06,4.603-4.603v-15.375c0-2.542-2.0609-4.604-4.603-4.604h-43.7319Z"/>
  <path class="st0" d="M603.227,240.9153l-22.433,53.656-21.894-53.62c-.707-1.731-2.391-2.864-4.262-2.864h-25.0399c-3.2951,0-5.5241,3.362-4.2401,6.397l36.985,87.464c.72,1.704,2.39,2.81,4.24,2.81h25.936c1.85,0,3.52-1.106,4.2399-2.81l36.985-87.464c1.283-3.035-.945-6.397-4.24-6.397h-22.03c-1.856,0-3.531,1.116-4.2469,2.8279h0Z"/>
  <path class="st0" d="M391.6759,241.2883l-16.791,52.454-15.859-52.385c-.588-1.941-2.377-3.27-4.406-3.27h-23.204c-1.996,0-3.764,1.2859-4.379,3.185l-16.783,51.78-15.851-51.71c-.593-1.934-2.379-3.2549-4.402-3.2549h-23.848c-3.119,0-5.335,3.037-4.385,6.007l27.989,87.464c.61,1.907,2.383,3.2,4.384,3.2h28.2141c2.004,0,3.778-1.297,4.386-3.207l15.414-48.442,14.617,48.3781c.587,1.942,2.377,3.271,4.406,3.271h28.161c2.003,0,3.775-1.293,4.385-3.2l27.989-87.464c.95-2.97-1.266-6.007-4.385-6.007h-21.268c-2.002,0-3.774,1.295-4.384,3.201h0Z"/>
  <path class="st0" d="M93.5409,334.7583h67.025c2.542,0,4.603-2.06,4.603-4.603v-16.066c0-2.542-2.061-4.603-4.603-4.603h-39.037v-66.795c0-2.542-2.061-4.6039-4.603-4.6039h-23.385c-2.543,0-4.604,2.062-4.604,4.6039v87.464c0,2.543,2.061,4.603,4.604,4.603h0Z"/>
  <path class="st0" d="M78.5799,258.0663v-15.375c0-2.542-2.061-4.6039-4.604-4.6039H4.6033c-2.5422,0-4.6033,2.062-4.6033,4.6039v87.464c0,2.543,2.0611,4.603,4.6033,4.603h23.3853c2.5424,0,4.6033-2.06,4.6033-4.603v-26.331h35.722c2.543,0,4.604-2.061,4.604-4.604v-15.375c0-2.542-2.061-4.603-4.604-4.603h-35.722v-16.572h41.384c2.543,0,4.604-2.061,4.604-4.604h0Z"/>
  <path class="st0" d="M257.1919,275.9693l-35.627-35.627c-5.805-5.806-15.217-5.806-21.023,0l-35.623,35.622c-5.805,5.807-5.804,15.217,0,21.023l35.628,35.628c5.804,5.805,15.217,5.805,21.023-.001l35.6219-35.622c5.805-5.806,5.805-15.218,0-21.023h0ZM229.0879,290.5873l-13.923,13.922c-2.269,2.27-5.947,2.27-8.217.0009l-13.924-13.925c-2.268-2.269-2.268-5.947,0-8.216l13.923-13.922c2.269-2.27,5.947-2.27,8.216,0l13.925,13.924c2.269,2.268,2.269,5.947,0,8.216h0Z"/>
</svg>